# xmcd
#
# Track frame offsets:
#	150
#	14305
#	32582
#	46550
#	58577
#	74487
#	92431
#	109091
#	123773
#	140898
#
# Disc length: 2083 seconds
#
# Revision: 1
# Processed by: cddbd v1.5.2PL0 Copyright (c) Steve Scherf et al.
# Submitted via: audiograbber 1.83.01
#
DISCID=7e08210a
DTITLE=Glen Campbell - It's the World Gone Crazy
DYEAR=1981
DGENRE=Country
TTITLE0=Why Don't We Just Sleep on It Tonight
TTITLE1=I Don't Want to Know Your Name
TTITLE2=In Cars
TTITLE3=It's the World's Gone Crazy (Cotillion)
TTITLE4=Rollin'
TTITLE5=Nothing Quite Like Love
TTITLE6=A Daisy a Day
TTITLE7=Any Which Way You Can
TTITLE8=It's Your World
TTITLE9=Shoulder to Shoulder
EXTD=
EXTT0=
EXTT1=
EXTT2=
EXTT3=
EXTT4=
EXTT5=
EXTT6=
EXTT7=
EXTT8=
EXTT9=
PLAYORDER=
